Coordinates
version=1
nRows=7
nColumns=33
inDegrees=yes

Units are S.I. units (second, meters, Newtons, ...)
Angles are in degrees.

endheader
time	ground_thorax_rot_x	ground_thorax_rot_y	ground_thorax_rot_z	ground_thorax_tx	ground_thorax_ty	ground_thorax_tz	clav_prot_r	clav_elev_r	scapula_abduction_r	scapula_elevation_r	scapula_upward_rot_r	scapula_winging_r	shoulder_elv_r	plane_of_elev_r	axial_rot_r	elbow_flexion_r	pro_sup_r	wrist_flex_r	wrist_dev_r	clav_prot_l	clav_elev_l	scapula_abduction_l	scapula_elevation_l	scapula_upward_rot_l	scapula_winging_l	shoulder_elv_l	plane_of_elev_l	axial_rot_l	elbow_flexion_l	pro_sup_l	wrist_flex_l	wrist_dev_l
      5.47000000	     22.89731140	     35.66245422	     54.83960212	     38.06654084	    779.01429290	    -33.86817734	     12.99163351	     36.06722292	     27.80287268	     45.00000000	    -45.00000000	   2439.13051030	    790.13629428	     20.87003092	   -162.94789702	   3600.46856847	    177.49297808	     12.04445024	     12.80156811	    -14.13635759	    -45.00000000	    -32.94653052	     45.00000000	    -45.00000000	   2618.69534892	  -3887.23901168	     23.86269564	     24.64763610	    349.84743455	     50.93952482	     11.68610144	    -14.80948573
      5.48000000	     22.86334902	     35.73403352	     54.87282672	     39.54539237	    777.72084716	    -33.81447704	     12.92650837	     36.11423272	     27.66828555	     45.00000000	    -45.00000000	   2439.31872350	    790.14570653	     20.75867426	   -162.46603456	   3600.48574581	    177.53646781	     11.99390501	     12.69185862	    -14.28123633	    -45.00000000	    -32.78526897	     45.00000000	    -45.00000000	   2618.61992677	  -3887.37036851	     23.75850149	     24.13750682	    349.89797828	     51.07986574	     11.63266325	    -14.74584725
      5.49000000	     22.79280215	     35.82915645	     54.96089001	     40.94124239	    776.47318503	    -33.75483806	     12.93044068	     36.09063149	     27.47669529	     45.00000000	    -45.00000000	   2439.47482936	    790.16368037	     20.69890727	   -162.08254509	   3600.53020235	    177.53621512	     11.92788714	     12.57963800	    -14.38702865	    -45.00000000	    -32.63115883	     45.00000000	    -45.00000000	   2618.56502817	  -3887.50354712	     23.63975119	     23.57854110	    349.96021964	     51.19093122	     11.56427438	    -14.66492126
      5.50000000	     22.75105439	     35.94380464	     54.98616827	     42.26050842	    775.27623117	    -33.68545616	     12.91472065	     36.06609696	     27.18413341	     45.00000000	    -45.00000000	   2439.61939960	    790.25847060	     20.65045433	   -161.66527421	   3600.44452403	    177.51858309	     11.90638662	     12.41029744	    -14.50027999	    -45.00000000	    -32.43859020	     45.00000000	    -45.00000000	   2618.45701349	  -3887.62513695	     23.51771662	     22.98366702	    349.98918859	     51.28013442	     11.47934829	    -14.53614812
      5.51000000	     22.65135846	     36.01750869	     55.14386871	     43.50926061	    774.13428490	    -33.60509721	     12.90232776	     36.03369511	     27.17624375	     45.00000000	    -45.00000000	   2439.65512532	    790.14754174	     20.53423490	   -161.30612373	   3600.57774819	    177.47309537	     11.82062697	     12.37576135	    -14.60020045	    -45.00000000	    -32.29061536	     45.00000000	    -45.00000000	   2618.53415967	  -3887.72410067	     23.46290670	     22.51994822	    350.01061247	     51.32875408	     11.49449151	    -14.52373648
      5.52000000	     22.69725961	     36.03299017	     55.04369070	     44.69286758	    773.05255631	    -33.51386594	     12.83505360	     36.12402936	     27.01206126	     45.00000000	    -45.00000000	   2439.87472238	    790.22893018	     20.44043484	   -160.84280380	   3600.54996107	    177.42365564	     11.78505834	     12.23925212	    -14.70865757	    -45.00000000	    -32.15755328	     45.00000000	    -45.00000000	   2618.40918931	  -3887.86468961	     23.32454352	     22.03493275	    350.10526754	     51.35783741	     11.39941118	    -14.41722528
      5.53000000	     22.57054671	     36.10823534	     55.26424858	     45.81619791	    772.03519603	    -33.41261628	     12.87025561	     35.96598788	     26.94462012	     45.00000000	    -45.00000000	   2439.86289120	    790.11979375	     20.43468731	   -160.59547027	   3600.72051727	    177.31104388	     11.69978753	     12.18892767	    -14.81764154	    -45.00000000	    -32.00342667	     45.00000000	    -45.00000000	   2618.54154503	  -3887.86841673	     23.24151988	     21.61814858	    350.09367325	     51.37091382	     11.40882425	    -14.37571680
